<mxfile host="app.diagrams.net" modified="2023-07-23T18:16:58.478Z" agent="Mozilla/5.0 (Macintosh; Intel Mac OS X 10_15_7) AppleWebKit/537.36 (KHTML, like Gecko) Chrome/114.0.0.0 Safari/537.36" etag="0cCzmlixUS9zMcfNMkw7" version="21.6.5" type="github">
  <diagram name="Page-1" id="5f0bae14-7c28-e335-631c-24af17079c00">
    <mxGraphModel dx="909" dy="532" grid="1" gridSize="10" guides="1" tooltips="1" connect="1" arrows="1" fold="1" page="1" pageScale="1" pageWidth="1100" pageHeight="850" background="none" math="0" shadow="0">
      <root>
        <mxCell id="0" />
        <mxCell id="1" parent="0" />
        <mxCell id="39150e848f15840c-1" value="Block" style="verticalAlign=top;align=left;spacingTop=8;spacingLeft=2;spacingRight=12;shape=cube;size=10;direction=south;fontStyle=4;html=1;rounded=0;shadow=0;comic=0;labelBackgroundColor=none;strokeWidth=1;fontFamily=Verdana;fontSize=12" parent="1" vertex="1">
          <mxGeometry x="120" y="70" width="330" height="220" as="geometry" />
        </mxCell>
        <mxCell id="39150e848f15840c-2" value="Block" style="verticalAlign=top;align=left;spacingTop=8;spacingLeft=2;spacingRight=12;shape=cube;size=10;direction=south;fontStyle=4;html=1;rounded=0;shadow=0;comic=0;labelBackgroundColor=none;strokeWidth=1;fontFamily=Verdana;fontSize=12" parent="1" vertex="1">
          <mxGeometry x="530" y="70" width="330" height="220" as="geometry" />
        </mxCell>
        <mxCell id="39150e848f15840c-3" value="Block" style="verticalAlign=top;align=left;spacingTop=8;spacingLeft=2;spacingRight=12;shape=cube;size=10;direction=south;fontStyle=4;html=1;rounded=0;shadow=0;comic=0;labelBackgroundColor=none;strokeWidth=1;fontFamily=Verdana;fontSize=12" parent="1" vertex="1">
          <mxGeometry x="370" y="410" width="260" height="150" as="geometry" />
        </mxCell>
        <mxCell id="39150e848f15840c-4" value="&amp;laquo;interface&amp;raquo;&lt;br&gt;&lt;b&gt;Name&lt;/b&gt;" style="html=1;rounded=0;shadow=0;comic=0;labelBackgroundColor=none;strokeWidth=1;fontFamily=Verdana;fontSize=12;align=center;" parent="1" vertex="1">
          <mxGeometry x="160" y="140" width="110" height="50" as="geometry" />
        </mxCell>
        <mxCell id="39150e848f15840c-5" value="Module" style="shape=component;align=left;spacingLeft=36;rounded=0;shadow=0;comic=0;labelBackgroundColor=none;strokeWidth=1;fontFamily=Verdana;fontSize=12;html=1;" parent="1" vertex="1">
          <mxGeometry x="310" y="135" width="120" height="60" as="geometry" />
        </mxCell>
        <mxCell id="39150e848f15840c-6" value="" style="ellipse;whiteSpace=wrap;html=1;rounded=0;shadow=0;comic=0;labelBackgroundColor=none;strokeWidth=1;fontFamily=Verdana;fontSize=12;align=center;" parent="1" vertex="1">
          <mxGeometry x="360" y="230" width="20" height="20" as="geometry" />
        </mxCell>
        <mxCell id="39150e848f15840c-7" value="Module" style="shape=component;align=left;spacingLeft=36;rounded=0;shadow=0;comic=0;labelBackgroundColor=none;strokeWidth=1;fontFamily=Verdana;fontSize=12;html=1;" parent="1" vertex="1">
          <mxGeometry x="560" y="135" width="120" height="60" as="geometry" />
        </mxCell>
        <mxCell id="39150e848f15840c-8" value="&amp;laquo;interface&amp;raquo;&lt;br&gt;&lt;b&gt;Name&lt;/b&gt;" style="html=1;rounded=0;shadow=0;comic=0;labelBackgroundColor=none;strokeWidth=1;fontFamily=Verdana;fontSize=12;align=center;" parent="1" vertex="1">
          <mxGeometry x="720" y="140" width="110" height="50" as="geometry" />
        </mxCell>
        <mxCell id="39150e848f15840c-9" value="" style="ellipse;whiteSpace=wrap;html=1;rounded=0;shadow=0;comic=0;labelBackgroundColor=none;strokeWidth=1;fontFamily=Verdana;fontSize=12;align=center;" parent="1" vertex="1">
          <mxGeometry x="620" y="230" width="20" height="20" as="geometry" />
        </mxCell>
        <mxCell id="39150e848f15840c-10" value="Module" style="shape=component;align=left;spacingLeft=36;rounded=0;shadow=0;comic=0;labelBackgroundColor=none;strokeWidth=1;fontFamily=Verdana;fontSize=12;html=1;" parent="1" vertex="1">
          <mxGeometry x="440" y="460" width="120" height="60" as="geometry" />
        </mxCell>
        <mxCell id="39150e848f15840c-11" style="edgeStyle=none;rounded=0;html=1;dashed=1;labelBackgroundColor=none;startArrow=none;startFill=0;startSize=8;endArrow=open;endFill=0;endSize=16;fontFamily=Verdana;fontSize=12;" parent="1" source="39150e848f15840c-10" target="39150e848f15840c-6" edge="1">
          <mxGeometry relative="1" as="geometry" />
        </mxCell>
        <mxCell id="39150e848f15840c-12" style="edgeStyle=none;rounded=0;html=1;dashed=1;labelBackgroundColor=none;startArrow=none;startFill=0;startSize=8;endArrow=open;endFill=0;endSize=16;fontFamily=Verdana;fontSize=12;" parent="1" source="39150e848f15840c-3" target="39150e848f15840c-9" edge="1">
          <mxGeometry relative="1" as="geometry" />
        </mxCell>
        <mxCell id="39150e848f15840c-13" style="edgeStyle=elbowEdgeStyle;rounded=0;html=1;labelBackgroundColor=none;startArrow=none;startFill=0;startSize=8;endArrow=none;endFill=0;endSize=16;fontFamily=Verdana;fontSize=12;" parent="1" source="39150e848f15840c-9" target="39150e848f15840c-7" edge="1">
          <mxGeometry relative="1" as="geometry" />
        </mxCell>
        <mxCell id="39150e848f15840c-14" style="edgeStyle=elbowEdgeStyle;rounded=0;html=1;labelBackgroundColor=none;startArrow=none;startFill=0;startSize=8;endArrow=none;endFill=0;endSize=16;fontFamily=Verdana;fontSize=12;" parent="1" source="39150e848f15840c-6" target="39150e848f15840c-5" edge="1">
          <mxGeometry relative="1" as="geometry" />
        </mxCell>
        <mxCell id="39150e848f15840c-15" style="edgeStyle=orthogonalEdgeStyle;rounded=0;html=1;labelBackgroundColor=none;startArrow=none;startFill=0;startSize=8;endArrow=open;endFill=0;endSize=16;fontFamily=Verdana;fontSize=12;dashed=1;" parent="1" source="39150e848f15840c-5" target="39150e848f15840c-4" edge="1">
          <mxGeometry relative="1" as="geometry">
            <Array as="points">
              <mxPoint x="350" y="220" />
              <mxPoint x="215" y="220" />
            </Array>
          </mxGeometry>
        </mxCell>
        <mxCell id="39150e848f15840c-16" style="edgeStyle=orthogonalEdgeStyle;rounded=0;html=1;dashed=1;labelBackgroundColor=none;startArrow=none;startFill=0;startSize=8;endArrow=open;endFill=0;endSize=16;fontFamily=Verdana;fontSize=12;" parent="1" source="39150e848f15840c-7" target="39150e848f15840c-8" edge="1">
          <mxGeometry relative="1" as="geometry" />
        </mxCell>
        <mxCell id="39150e848f15840c-17" style="edgeStyle=orthogonalEdgeStyle;rounded=0;html=1;labelBackgroundColor=none;startArrow=none;startFill=0;startSize=8;endArrow=none;endFill=0;endSize=16;fontFamily=Verdana;fontSize=12;" parent="1" source="39150e848f15840c-3" target="39150e848f15840c-2" edge="1">
          <mxGeometry relative="1" as="geometry">
            <Array as="points">
              <mxPoint x="695" y="485" />
            </Array>
          </mxGeometry>
        </mxCell>
        <mxCell id="39150e848f15840c-18" style="edgeStyle=orthogonalEdgeStyle;rounded=0;html=1;labelBackgroundColor=none;startArrow=none;startFill=0;startSize=8;endArrow=none;endFill=0;endSize=16;fontFamily=Verdana;fontSize=12;" parent="1" source="39150e848f15840c-3" target="39150e848f15840c-1" edge="1">
          <mxGeometry relative="1" as="geometry">
            <Array as="points">
              <mxPoint x="285" y="485" />
            </Array>
          </mxGeometry>
        </mxCell>
        <mxCell id="TApjB5D54E2WqBaY5rXI-1" value="&lt;font color=&quot;#148fed&quot;&gt;&lt;b&gt;Docker&lt;/b&gt;&lt;/font&gt;" style="verticalAlign=top;align=left;spacingTop=8;spacingLeft=2;spacingRight=12;shape=cube;size=10;direction=south;fontStyle=4;html=1;rounded=0;shadow=0;comic=0;labelBackgroundColor=none;strokeWidth=1;fontFamily=Verdana;fontSize=12;fillColor=#dae8fc;strokeColor=#6c8ebf;" parent="1" vertex="1">
          <mxGeometry x="300" y="740" width="440" height="360" as="geometry" />
        </mxCell>
        <mxCell id="TApjB5D54E2WqBaY5rXI-3" value="" style="shape=image;verticalLabelPosition=bottom;verticalAlign=top;imageAspect=0;aspect=fixed;image=data:image/png,iVBORw0KGgoAAAANSUhEUgAAAQkAAAC+CAYAAAAm0PodAAAAAXNSR0IArs4c6QAAIABJREFUeF7tXQeYFEX2fz0zm3OEzcLCBiTnHJckUeEUFVBQOcGMLIY7Pc+/CQGROwMGQDkUVIIICJLTksOCArvkzcDC7rI5TE//v9czPds907MTe9JWf5/fnW5X1atfVf/m1asXKCCP2yFQXFwVvXLz2fm/HsqdXlJeFwgAcqknyTAAYYFeJSN7xvzy6AMdPk5KCL4m9Zikf/sgQNlnGDKKvRA4eDonbco7e3Y20CoI9VHYa1jtOBX1KiioaoDVL/eZPXVch2V2F4AMaHMECEnYHFLHdZh3pzqm3eM/5kf7ewDlwJVFraKwsgG2fjg8bWDXhN2OQ4SMbAsEHLiVbCE+6YOPwKx3t/229eTNcQGeMscDQ9MQHxX4144vJndwvDBEAmsQICRhDXpO1JZhGI/YCd/V+3vIhFoETQPI5QAKCY8eSiUANw4Pk6y7tXB11ZSkxLigy04EFRHFTAQISZgJmLO+fjXvXtuBz224JCAJmgYmLBzo1C4Anl7SiV5fB/JrWUAV5qkJSfMUVDTAlg/Shg3qdt8e6QYnPUuNACEJqRG2U/9X84uTBs7Zkq2rSSgHjVYTBK2UXBJFxi6AuloBSfz23vDhQ3ok7JJ8cDKAZAgQkpAMWvt2LEoSXt6gHDjKLgQBcgXIzx0XaBOoSRDjpX33gRSjEZKQAlUH9ElIwgGgN5MhCUm4yUKbRRJoZMSHZz8QwCBihNT+3VBbokm4yU7SnwYhCTdZWpNJoqYaFCcOACiVQHfrB0xQSCMCcgXIss+BLPcaMMEhQPcYJDyqGGlLjhtuspl0pkFIwk3W1SySOLSTnTXdpRcwLWIbiYCvDfj66dszkCT4bcNbCgiGkISbbCZCEu65kIQk3HNdnWFWRJNwhlWwgQyifhJitxu62gDRJGyAvnt3QUjCTdaXkISbLKQTToOQhBMuiiUiEZKwBDXSxhQECEmYgpILvOOsJEHcsl1g8xgRkZCE668hOwNCEm6ykE44DUISTrgolojkrCRB3LItWU3nakNIwrnWw2JpCElYDB1pSI4bzWMPEJJoHuvsiFkSTcIRqEswJiEJCUAlXbIIEJJwk41ASMJNFtIJp0FIwgkXxRKRzCYJlQrobn0si93g2pLYDUuWyuXaEJJwuSUTF9gskjh9mA3qYqNA/QIaO8Qo0CsXQJZ3DZiwSKA79tSPAm2iLQnwcpPNpDMNQhJusq5X8u61GfTchsuC9HUkM5WbrK5jp0FIwrH422z0SzllrYe8sPEqIQmbQUo60iBASMJNtsKNG2Wt+r248RohCTdZUCeaBiEJJ1oMa0QRJQmaBmX/4QD+gdImw5Ur2P7FsmWT2A1rVtU52ro1SWDBGgBgNFDj/9pyvly/tlxJMfnExuHe075/vfBO6wGzt2TpFefx8ga6fTdgkCgkeqjaajbtHXX3Dqm7IRHGjuzWlh+NI+ehHftaQXHyR8tPvb8mI39SRb0m4atTSCatEAGecjBYAxST16pU0grggXwsfEhxHmkht1fvbkUSm3ZlPT7hwwOrY/w8QPOLamvtwV7rYu44TjlPQhLmLqNzvu82JHEmu6jHwBe3Ho8J0P9Fc07o3V8qQhLuscZuQxJTXtu8++DFO0OdoqK2e+wNq2dBSMJqCJ2iA7cgidu3K1u2n/FTUYi3Qr+itpcXYAk6yR6sfWmsmI0jZeBk8/KWDAK2zmhdnV6xH0IS0kFuz57dgiQwnXziExuzU0J4lbOxonZ0HNApnQxXqrIF0jQN8qyzehW12a5pGlSpHUEVFS+tDDXV6jqcVZXCGfGrivv42mK24n3QNMiuZ4Ps+mVyuyEdyg7r2X1JQqFQF5exxyNXgGLvFrYqlvbhSEo3/kEKeeQKoMpLQX54jx4ZsVXFDZXzs7Es8mP7BETl7poEXrFTFNVgYxidrju3JQnRMnVSwY+Vr07sF/oJoBbRJhVUbdpJ68jEm5NizxbhDJ0gdsNdnanmfrz7m9X7bzz91dz+0x8clvw/qbaWM/TrniTBqdm6tSylQpyQBGv3aS5RoHtP5KQNef2PncnBXlBY2QBDUsJO/t9zfZ7vlNTymFRbzJH9Nj+SMFZRu6YawBONnXL9dWmqorY5moSxMerrAAzZEJpoa7ImgfOwcAzWSCvWtpmQxM2bFZHdZq0rCvCU4beD/ikyoOmGgmqVx7yJyUvffrb/PIqieOdOR37ethm7eZEEv8Rd36F6uRS4X0ImLBzorv2ECBtrawpJYL6GnMsgu3gOAAvy9h6iR0aKA9vZmwLW4JnQVlDM12hbU44bOI8je1ijKt1zoF5VcS0GgUFA903TzydhQluOYNEm4W7Zsme9u33j1pNFE8Wu2ktqlBAa6F2x9p2haZ2To47b5hN1fC/NiiSoqgqQH9qlvnjoPVj/A9F86GIkYWpbrQYiZpPgkrpcuQjg5QXKfsOFJEHToNi/TX0romvPMNYWAEzSJEgtUIu/uo27sqZOX3jof0057DEMQHZZHax+uc/sqeM6LLN4MCdq2DxJQiYT/xVtiiTulYL86D4AI20JSeRpic+dNAmGYWT9Zv509W553X2U7lej4yeDRIG2ilcnJH/yzpwBrzrR926RKIQkONh4xkdRTYKQBICuFtKMclx+vS5z7j9Xnloc6sNzzMNr9h4DQX7xDFDFtwF0gtyQJB/tF7v+67dHTbbo63SSRoQkCEkI7B7aGwq0maCfCXpTck8zJQmGYTxbjF1RJ/DoRZtOl17qRMJoveRsTToGb7RTDG0fuWfNR2NHUxRV7yTfvVliEJIgJEFIwsgns3DF0Q8Wrj//hlaLELti5xzaju3Xc9NHohjWPnLvjx+NHeWKREFIgpAEIYkmSIJhGHnK5FWVFAWNwS9iN0PYB8YIVZaDAjOKV1cJjNJIFCN6xG1b/c6IB8z6GXeClwlJEJIgJNHEh7j6t7/mzP3q2Od8WwTj569/PczvA+N5Th4EqvyeXizLvIkpS/41u/9cJ/j2TRaBkAQhCUISTXwuI+asO5dzq6qD9kajoUH/+lysfRNE8eXzvVzqepSQBCEJQhIGSOL4ucKBw9J/3y/wizAnHgb9Xo7uFRw98Hq0tFYJOz55oJerOFwRkiAkQUjCAEnMXbjr+58O5k3Xeldyof98T1hjSjvn4cp7D4kiLMC7KGPlw/Gu4MJNSIKQBCEJkQ8dw8BTJq+qoyhhhnWzQ+/x1qOkGOTHD+gZMp8bm7T0X7MHvGyMZxz9d0IShCQkJYnf3hs+fEiPBLUvvAs9+0/mjhj7jx1/aI8a1uQH4cfs8Pwosu7WwtmvJvR29ujR5kkSjo7duHQewMfH8tgNuRzEftHMit2wU1VxVyWJuQt3/++ng7lT+UcN1nmK72VqDumJpBPAY0dCC7+LO76Y3M6cruz9brMiCdatGO+wAUDZta8wHBvZPvscyG4VgqpFtDpZDP8x0tbUpDPUnZsgz/4LGB8foDv11osClZ/OAKqmBujk9nobUtBWN0rV1AAvzuquVALduZd4VfHCXGCCQ/WrihtpK5ZPwlVJImb8SkYQ6Yku2LoBeeZ+rZzHKk+bQP+JL1/s8/Skke2Wm9udvd53D5LIu9c28cmfLmlzXJKkM+r9Y44l3todZyCfhCuSxFWp9hM/kldDFKwRM9D7dsaKh6MoipK4gpJli+wWJHEl716bNk/+dJmQhPOlr3NFklj3x8Un5vzn8Hd8N2y9/B6WfW9sK7GaqV883/OFaeM6fmZFt5I1dQuSuJRT1jpp5s9X+dmy2RyXIiq5JEjir+jhXcJs1fbOccnlouBPkGgSFi333EW7V/50IPdJgT1CN0mRRT2rXbepW/kgP3NMe9REbSI80OtmxsopUZZ2K2U7tyAJrP/ZevrGLEFKfbQ79Blqn4ra9XXqhC86EYBG3XdttbIiG4/t2p5VxRGDjJ2CjOGumk+i74y1OXfL6+L5eSOUQ8faarUMahM7Fo0c0qdD3D6bDmSDziQjCbxnvnOnOlylYlQMwzAUpZeqwyTxsS2+yPhpq4ODrJqS4X/H/yavoeTXi8rapc3fvlsvY5BCAXS7zsD4SVhRu6qcNUQCFunRfTS2EVViO2Awb6ZEj+zuLaCyzwsLE3Fj2QOD+jqQYe0RnVgFNMp9/Wr/J3q3i96O648+BwzTuI58HwT+fzcEE7cX+H/n9gVVBewILVr437IGZty3qX9bhYsp4/qxOdmLXIlW1KtgbPeoLV+9PWqcNfJL0dbmJIEpvhb+kPn+4Rv34oHNFSr9E6CQQUyABxp9tAurHVXqitoyWdN1LbjkuVJW9TZFBgeNj0Rxu9ZO1d1VDGB19WeGtf7hlZm9X4sL9y0wd/ehfWvQcxsuawpOs9oYW+TJ1vVTdI6HXDar8u1PyZ3NgGnTr/jlBTtXfbrj+jRMNW6Z3mDukpL3CQJCBPBjq2xQQQOtgp1LxpjtqHQ6q7D7oJd+P8F3opKkforIbRAS6rp3h48a2C3+D2daV5uRxLcbMl955auTn5Cq3s60vM1XFiQLykNB7186IcacI8i+EznDx/1z5w4BSehmLrcRrBSmROS5a+ORY8qA+LWL04c9aqMhbNKNTUgCC/Z2efqXIq2KZhPRSCcEAesQwF/m+ZNTP5o3o+8bpva0evOfz85ddvxL/vWnVZ6WTQ2M5SG3rxfccoQFehUfXjkl0lR57fGeTUji4OmctAfe2LlTT4vA87ivHzAK6ap6U2gwFKlozYKH43t5ASNhRe0mx+dkcHcMsAaqTiYmwea1xz7AYsm61d1pGjonRxxc+9G4gaZ+THoJbw1loTK1QyMkwffU5cLIjyybnJQYF3TZFkPYog+bkMSmXVmPP7MkY7UgkzAXVhvbSp3WS6qnvg7kZ48K63BqPk5tVXEJbxawmpVYRW2OpFgnHKkxqCxXZ2y+e0evjoddMKCVILt+CWRYT0S38hmXMBZjHqTcB4iBTmV1tTejV3HGikdammoM1CMJTDLTP03ovm6rvSzigckWWX5v5JhBPeJ+t9Uw1vZjE5L4dc/Fx6YtyPhBEDGHVbDsUYtTk1cQK2oLjKWkqji7N2x9v29wwxlwKJPkZkBMCC4RLRZf0qS2t8TlGW1rby4/9Yn2B09KkgAAXbsEHpHem9ntrVmTOr9XXFwVVVBSHldaqQwtKCprW3S7Iv7m3ZrY8hplYEVVfTAwQFXXKv3xKtnHW17l4eNdG+4tuxMU6Fmc0DLgWqu48L+CAxV3Y0ID8yIi/IosJQvJSEISi7ChWXIZgHi+CqSqOPqWGMnFaOmuMfCR6gZ4sZXIJDL6GRJdsXOT3hnfHE3iuw1nX5y//ORSgU1CtxyiLXHDvavjiMcwoCqsbJBVKFWA1/v4+Cgo8JA33vAHyFn3IWBk6pq1lEp9zVxBqz9pvN2pUarfwX5i/DxYP4wBXWN29Onc8o/E2IhLpk7DJiSxcffFR6d/nPGj5NdGppIECfBSI+Vgt2y7k4TOB6c5btzRkIRJzhobdl6Y/sSiw9/z97JkhkvNsVjXU9XUj9fc9/D2BMkD/Vb6xgfeGtcn/sdRg1qt6ZIcdaKpvuxOElhTk2U/sarZNdUsIzJ+AaIyG2yrq0k0RRJYlZulZl/9MWgaqNpqYLx9xR2kDLUVyRUgWs9TM6IkGJgaKo4yNIWzCRiIrpHIvX9TJMFi0ATORveBWFsbkMSB0znDxryxc5c9rkC5DSg/tk8Y92Pu12/B+5w/SXkdDb3bBF94dny7Tx4akbqKoqgG3e5sQhKbdmVPmbrw4JomNQnOFfV8JltPUzl8glAW7kOvrABV0v3qfA5c9ShT23LHDQMkYVLR3+LbwERE6gWHCdrqGrJMJQn+PMSSznAfekMDqO7vLF5VHPFrqi0fVTFNgstpwCWdESvVl58D7HFNrKr4oZ0ATbUtbKwFKkoSnLEOE+94eIjaTNgjg0oljsGVCyAz1NYGJHH2QkHX4enbTwkiQFu1BVVyR2E1Mws+TENN2BwiZaWiP1rGhtE9bhh8X9egzHuRu1UJDfBWffBU56cfGn7/Sn4/9ieJi+fYDaBMG69fURsDhOrqQKW7KHxfd84Yx5+0iZqESSRx9w6QquJ57NW1tWX+DJIEJve5fpnVKOlhOoFT3IcOoG/P4BIDGWsryNXgZdZxA42FnZ/6uVDgli2lEZ7/A8N9mdy1vX8gML7+wAQEAnh4ASgUjdqX2E0R/qjiNXB9HVD4T0UZQG0NUOWlQFVWqIPvuDABEdLgXMMHJ4cd//JfIyfFhvnmo0g2IQmTbBKmfOimkoQhLcRUTYJUFWe3o7aWJU9js2UtUGMkgdelYrcvrCZhhCRE29pAk8BxU6b8wDANSsFtmXL4RGk0CQ3xob8NZkQDHz81Eehe2/NrshpTL7TnGJ7rAa0E/JGkSu8AdbsQoLRUbewUIQu0Xfh7yGpXvDFkQr/u8TsISfAA5RxbSFVx+2gSdiQJzPrEq3zc9Fc25fXN+zKziwdpPyAu5F7MjmXqB2vsPU4zsIQMjPXN/zs3Dvr3FOWCLOcqAGoZOhXRuSPIgqe7vkJIgpCEZNmynUOT8LybsWIKOlOZTBLfrM989R8rTi3Sc83GCuJSf8TmfPDWvqshDDYJzoVMfc9lmoak+OBzhCQISRCS0PnY0HjZ/5VtpxziHGjth29JeyQLWgm6BlT0/lyV3v9pQhKEJNycJLxKMlY80sIcTQK3RMDIb5lof49Gu4QtsmVb8gHbqw3ac0Qyi11ZNaWlTUhCzC1bz+OSGC7Z2AUZXuFhjIOXl+V1N8TamuonwV2BNh/DpUUk8crC3at+Ppg7zaoSf/b6wK0dx0CmrCFdYnas/veIkYQkiCZBNAmRj+zwnwV9R87blsGPbGbd3HsNtvaTdMr2uoWd8Kjx2wcjRw/pFredkAQhCfcmiSCv0ozlj0Sae9zAbdFvxtqiO+V1LbWBg1KGjTuKOni+J/zbnKT4kNO/LX2wG4plE5LAUPGpCw+tNsnjEp2pDDlEET8JUOzfxjq8iB7XmjqqkOMGixs/WIqN3bCCJPSCvdiEzHYMmpOaOLjI2cN7BP4SfC2CkERQSOMy8DzfiJ+EG/lJWEESheXl4UNnbiwWfKsYOt57MDChEW5xHapbKAgdqQakhu9Zu2DcMG7eRJMgxw1y3GjiF/ub9Wde/seK00sECZXsmatEKm1CJCAPNa/ssjooXvt4TESEX6HjSAIDlPC4YSh2o6YGVInJwoAaflCQobZH9zbWvjAU4IWJR4+qa5+wvwbmaBJVFSDHhCZG2vLPdQaPDMaqimOAl1iQGxfcZMsAL76DEH/j4A3KkLHCX0tTgsNMCfDSxG6w+0DMxX7XbyzOokFuxtrycjNoQsXLMlY8EmGJTYL7SJInfc8mZuDbJvTii6T6mKXoVyQjFg6Dx4yls7vPnTmx8xL+sPbTJDRZeLCIC7qAipXgk58/DVBZDqrEFP2K2vdK2QIwom1NDPDCM6v85EF1H6ld9KuKX7nA+rUzkdGgapUkXB4jbc2pKi67msVWFqPv76q3BZrE4M5NaKqtroVaNJ8EzuPsUQAkovbd9KuK51wGqiAHmLBI/chHXlu2DgXfTdmMUHGsjt4kBqcz1PKldBISOe6hptqKx25YTRJYS+bvSzL+p5uekcZkNK527OBHIvNcsfGYwV156m5Ku5KEdnCNh5f+F6L2/GryEWtrKklgx4bGNoWxDfnXmxoqzh/D1hiYarg0FQNz5TODJCTdB+KaRDhFUSYlnRHbBofPFQ2a+Mbv+wQkgS+6moOViD8ETkNTfgD2L53QUqz8gGNIwpQP0px3zCEJc/o19V1LSMLUvs14zyRNwoz+zHrVEpIwawATXjasSYSZmgiXG4VhGNmmvVlTvlh3/u0jV8uSRevJiOX9MEFMh7xi4IjBBXId/Xp8SuuYiGwx2aQjCYkTdQgmI+JSaveq4if2CxOHOENVcfyl07UrSLVDnZck7h1eOSXYlGkXVVREXL5c0nHPsdzxa3dfexHP6ALXbH4nDsjfacocDL2Dx1iKby/SvIhzNFao2CYkoeeWzaliA0dZp96bgoqzVNQ2VFUcPfSsOeJYiQHddygwgSHGj3GmjGNwByrYRCeiuRq57FjY1thR0koZZDmXQYZ+OMKkMwZJ4tatyhY3bpYn/Xm1uNeuo3kTM3Pv9SsorYFALzlo3bF1ZdLUEKE795IeV2vwwLYaPwjZX6f0ijlzCWY4r8qmhrIJSRgy7DCBQawRks2qI9GD2Xf4G0MwjKaitpTjQ0OdOswWs/6IbCi7YFBSzNa9EH0UClC1TgYmwKQfU8tWCTEwVlk9PlHafYAY6NT94OpufJk+eHxNvUpxs+Re/OUb99qfyynvdSK7eGhJRWMl+FBPynjhZy8vFktVQltpCc+yVWhspflRMlQLhTtibPz38JGYVMbYcAZJ4nrhnZT12y/POJl1Z0BmbnkfPqC6nWKq7yaZ15gU1v69ifx92nRd1o7RVPumxmd/QS22mZkuNcFA9CPnfjERSExLjw8SgjY3ZFM/k9y6+fqBKiGxsciSlBqR6Suu/6aGHPAGSDQ/BKbXr1dBgK8nbPtkZGqr6PAsU4bTgyj/bnXsu5/v/2JNRsE4BJVjWATb0EMqiJsCNXnHJRDgiAHzTOI1cGwr9TWs1EdGa8DhkQNeLVPl90QJE+0PY7q0OPjfV4dO4TtLGRtaQBIZJ3NHPPzubrbsuUHNwFiP5O8EAVdCgCMFlYrNQq6KjgcmOBSYkAh1nkln1hoQ58pykN3MB1netSZr4maVNcC3L/ROf/qhTovMXR4tSew9lTdqyPxt25KDvYTl8szt0dneFykiK0j+qft3vvzmtrXn+9aO5WzrJIU8ho55eDTDzNP+AazxUUAK7PHQ5Ex3Ukgt7JOfFVuTDZuqLAcKbTCFuer8lDKZwaNWaa0SuiQEXVr2z8ETTD1e6E6KJQk8Ygyb9Use/n/B0YFflVsnUab06JARCAI2QMDLR11V3tsHGG8f1njKoIbgHyjs3I7EoC3OhBKIFbOur2NlY7NZ11QBhWnx75WyWgOF1dMbGgwSA7bj7DAdov3L5k7p8OrkkfevsAZJliReWbDr558z8v4mOGJw98BR8eITsWZU0pYg4CgE7EgGYlNkjYqnjjR+5Ape2nuuAVcfA49AqCVwjwkG8oJqFSA5zH6o3VtTx3b4wlwnMlGZb9y4k3rfUxsupIQIrynpbv1czy/dURuPjEsQMAUBMc9cU9oZeIe7TMAjBdb3HN8+/Nwr03u8Nrhr7E5r3ND1jhsrN5xJf2356Y9DfRR4Tye3e5FXK0AiTQkCLoUARtEe+EOvxoWpc2BjLFQ0Wzkca3iiN2hybOCFBwe1Wj58UNLPXMUtU/sz9T1q2js79h3/s2gQRQFeclIuF7Ri6kzJewQBRyJgIHZC14cGCYB7sAI4PjVKtf9BTIgPdE4IPN4xMfRYn27xv7ePDz1nzlWmpdOn+s5YW1xSUReu7cCe5eotlZq0Iwi4IAJiWaDGdI/aTQFDlVUpQ4P8PEp9vRWVMopSRoX6Xg8K8bkd6udRHBMdeC02KuxybJjPbbGq31JDQWHdQ75LsVvl8JMaPdI/QcAUBETii/DokNDC79qOLyYnmtKFI9+h+s5cW3L3Xl0Id/VJSMKRy0HGdksERAyW6P24Or3fkxPSUr939jnjcaP0bnldsNY/ghw3nH3NiHyuhgCX9o8XnUp5KODimsfktriilBoOJImykoq6IGKTkBpq0n+zRECkrkVJjRLSJ6UuSp/ZN90VMKHGv7TxUnZ+eVuBJtEvzRVkJzISBFwCAX7GMC5M+8iyyUmJcUGXXWEC1JTXNp86c6Wkq5Yk3CFduCsgT2R0fwQM1Ngc073l5q/fHj3eVQCgZr27fduBM4WjtEFPrpbc01WQJnI2PwTkClAc2N5Y6gEA8Kix7t3howZ2i2ejrV3hoeYu3P3DTwdzH+PHbSj7DBWmS3eFmRAZCQJOhgAGZcmPH9BNp3fn8MopEU4mapPiUB8vP/L+0k1ZbxKScKVlI7I6PQIi156oRXwyu+eLU8d2+K/Ty88TkFqxMfP517899V9tTQGsnIzJU/0CXGkeRFaCgFMhgOHgcl4hXs5geWvLTE9HeE1aAw61bsf5qXOWHm2sTuSO5dWtQYi0JQiYi4BIeQHUIuZPTv1o3oy+b5jbnaPfpw6czhk2+a1duwSaRJdewPBrRDpaSjI+QcCVEBBxniqsbIArq6aIVshy9qlRRzML+w9/7feD2gpF9i4q4+wIEfkIAuYgIOI8hRmqnxmd+Nk7swe+YE5XzvIuVVxcFRUx5YdCbdIZJAl7Vt9yFiSIHAQBWyAgUmoQk8K4kvOULgwUwzDywFHLlXxNgomOA7ZqtINTfdlizUgfBAG7IWBAi3ige9Smb94eNdFucth4IJYkUh/9UakXLo7l6chDECAImI4AahH7twnex2jP/Usf6NE1Jfqk6R0515tsGpzxL208nZ1f3kUQv9F7SNNlz5xrHkQagoBjERDRIjDrVJek8ANrFowf5FjhrBudJYm5H+9Z/dOhnMc5hyq806UHjyYkYR22pHVzQgBvNI7sEcw4624tZC4b36tzctRxV4aCJYmFK458tHD9hde016ANDUD3TyMOVa68skR2+yFgwBYxMDV875oF44baTxBpRmJJYuPu7Gl//+TQKr6vhCq1o/NXT5YGE9IrQcA8BHT8IrCxO9giOBBYksjMLuo54MWtxwS+EuQa1LyNQt5ungiIeFeiX4Sr32jwF5MlCfSV6PzUz4X+HjJ1mT+aBiYsHOgeg8g1aPPc+mTWpiKgU0uDi9HYvni0S99o6JEEwzCykc+tP59zqyqFJJ8xdXeQ95o9AiKRnqhF/K1f3A+fvpY21V3w0VYCmfXutt+2nrw5Thsy3tAAyrTx5IbDXVaazMO2CBhIk485At1GAAAYY0lEQVQxGpfWPRIZFRBQbNsBHdebliT0bjhINKjjVoWM7BII6BbbUSe4vf/D9Jm933SJCZgopJYkDpzKHTnmzR3bSaCXiciR15ovAiK5KzXFe5VZ66b7UBSldCdwtCRxraA4ecDsLVnEeOlOy0vmIgkCOkFcOAZeeX73ar8Zk0akfifJmA7stLE6KQBgyT+mQam+4dA8yuETyQ2HAxeIDO1kCIgYK/E2MCk+5ORvSx/s4WTS2kQcAUnMenf7xq0niyZqjZcklZ1NQCaduAkCnLHy1BEADw92UtyV545PHnB592tDqyQgidVb/nxh7pfH/0OyVJm5qWkartAytlEbH/XmuVLToP53uYrcEJkJpzO/LlYZfMqAhO8Xpw990pnltkY2AUlcL7yT0mrahov8BDQkt0QT8GrIYV6SJzzayRu6RqsJgntOFzbAmrO1sOhSPSELa3apM7QVic9ALQKvPMu3P+VFUVS9M4gphQwCksABIscsZ0K8FY12CSwgTMr+6WF/pZ6BMRFy+HpcIEQHqLUIQ09hhQpmbS6HrcU0tPHUg1yKdSV92hIBPGaUFAtqaGD3aKxcld5/2oNpKattOZyz9aW3Y4ldwoQlomlIDvWADQ8HgqeiaYLgeqtXquDvmyvhu9wGQhQmQOxsr4gdMwakhu9Zu2DcMGeT1dby6JHEuj/Oz5zzn6PLBRGhbVJB1aYdueXgoX/+mWA9gkAiuHhV7WiXmhgh+vf+q+5BaR1j63Uk/UmFgEgAFw6F7tf7PnuwTdv44KtSDe0s/eqRRP7d6tjUx37M0zpVoQU3OATorv2cRWaHyoHHjL3jAmBwa0+BHO8uOwT/WncRAhQy8FFQcGvLTFE5912rhyGbK4g24dBVNHFwEddr7pjx5fO9n586rv3nJvbk0q+JHpDHv7TxVHZ+eWOlcZoG5dCxxEoPAMlBMtjyWLBg0f/+f3/Amox8iPb3gMoGFYzpHgVfvTXS4MbouaKUaBOu8Nmg01TGTuDnf0UNwl2SyZi6BKIksWjFkQUfr78wnyShEcKIWsS7Hb3hrSF+2j9s2pMN0z4+BHzNCxQKuLjmMYNrsOxoNcw+VkO0CVN3qSPeE3Ga4m4zXLXIjqUwipLE2Us3e/V/YctRQZp9kl8CkCR+H+0Po5O8tHhPf2cn7DlTAPyCy/hrg9rEv2f3h9BgH/hl+wV4fGx7bRty5LB0u9qpnUhsBo6cVVoHm94YOHVCWsoPdpLEKYYRJQlMs99v5s+Fd8trI7Uu2iR0nCWJU38L1PpDoKFy3EsbIedWlcCVnTNsFVQ1AKgYABkFzK5ntAuO/hPdfiknmoRTfAI6QqAdorwU5Id2ab0q8Q2M8Jw2+L6Vi9OHiRubnHEuNpLJ4KX9B19nLP50U9ZccuRoRFrMaDnh5V/hUm5pk/Ya1CzyNzU65BFNwka7V4puROwQeMwIC/Auylj5cIKrVQS3BUQGSeJMdlGPkXN/P64lCbzl8PMHum9as70KRZL4vJcPzOntq8V+0cqjsHD9BeDjxF8YTaYiWDK/8Tr9l3O18PDeKqJJ2GIH27gP+ekMoO7e0ZI+Z4fIXD4hOTE24pKNh3OJ7pp0/9OLCm3uAV80Df1jvGDlg4Haxb1VUg2DZq0DSkXraRPcBru0egq0DG80ds7YWA6HCurIbZEzfSJixXU0XpXLXug15/GxHb50JnHtKUuTJPHt+jPz31xxeoHgyNHMs2ijNlEwM0Tgin0tvxTGvL4TCu5UQKCXnF2/8joaYkJ84Ls3B0OvDtHaNUUX7ZgVpUSLsOcuNzYWZ6g8n6lnh5g6OGHVJ+lpTxjrwp3/3iRJ3LpV2aLFYz/e1AZ8IRIKBSj7DW++v4Ii2gTCgkbMbQcuw9lLao/L9olh0K9bArQIbTya4H+fs7kcduYQLcJpPioDcRl4TOzWKvj0pk8n9qQoinYaeR0giNFoo1nvbl+39WTRJEGOiS69gGkRS2wTPNuEKWtH/CNMQcmO73A3Gcf2CwbVpKKDg19OioqM9L9pR4mcciijJHHoRM7w0f/cuUPgpo0GzGZedVzMsaqpFf7iaDU8RxyonOsjwJoZJw4IPCo5O5KrVwK3JdBGSYJhGGrkc+v/zLlVdT/fZ4LuPRiYoBBbyuJyfXHh4vN6+0LfeIVoQNdft2l4e18VCRN3ttXFq86jewGqqwRH5+YS/m3OchglCexMLGMVqfClgVmTeKZHgAy6R8ghyl9tuCyqpOFkMQ0nKlQk4Yw5O9JO78qP7QOq/J4eQSz5e4/0px/qtMhOYrjEMCaRBMMwitS/raoFAPUXgA+pPK6/wLSOfUveCJdL7IZmIqSuLwROW+1R2cqt09BZurwmkQR2/vHyI+8v2nDhTf51KNEmLIWdtHMUAoYIYkKvmE3fvD1qoqPkcuZxTSYJvA5tM33tTQyH1tomSJUvZ15bIpsOAmIEgVedXVsFn9q89MHuBDBxBEwmCWz+wdcZCz7dlCUIISfaBNlaroCAIYLQ+EL0cedEttauj1kkcfNmRWTHp36+JUiUi9qEO/hNyBUAleVAVZUDExLRfJ3FrN1RTthezEiJGsT9sQHn//h8UldCEE0vmlkkgV19vS5z7j9XnlosCGhCL8yBo5xwe5ggkoYc5NeygMrPUTeQyYDuOxQYvwATOiCvOCUCuK71daLXnIQgzFsxs0mCYRiP1Ed/rGYalAq+bULlaslyNZtIdj0bZLnXAEu1gfo2Qgk0XcFEx3nSHXv6Ae1WtV/N2x2u+raG+FlHqTqhCzwSRLu4gAs7PpvUhWgQpi2w2SSB3a7fcfHJJxdnrBSkbMM8mP2HA/gIYxVME8OOb/HJoTBXbxMBQDXQdCUTFu5B9xgUQkjCjmtji6G4WIyzxwSelNg1XnP2ahN66rdPJ/YlBGE62BaRBHY/cs660zlF5V00v77sL7HTGjGRGPCpLAf2WFGYp/53ET8G/KVpoFXVQf0H+TZ3j1LTt5GTvGkguzVHEEPbR+5b89HYEc0xcYw1K2QxSZzOKuze9bktJwQRojQNqtSOoEpo6xzBXxqtgSotBlnuVaCKb7P2BjFyAJpmCqpV1JR+cb8/+XCvxU/sp3YTLcKarWXntlw+iKvZgnBvlAJdrZ9Ju6/Zh3xbuiIWkwQO+M4XBxd/sfVSY4o7jRTKPkMdc+zgNAZaCdS9UpDlXwfq7m31kcKA5sAF9AxOCTv15tPd5/XpELcPX92aVffwmO0VP5GyfJZuLTu10/wQyM8eFWSUwtG5tX3r4fs/mP9Un3/YSSK3G8YqkjBkxARfP/Vth9RGP44UcFnq64DVGG4VGiUGdhVpGrLKldA3PjDv/ef7zRrSLW677uo+uaF893e59UMJUTjpvudCvTOP6QVqocSY3fqHV/o066xStlg5q0gCBTh8rmjQyPSt+3Q9MbXVyHWltIQ4+GTAta+pZn0aWFIoK1FvEu5pImZCY3NgDVjp07v9Y2C3+D8MAckwjFfPFaV5pdXKCNEjii1WgPRhGQIG0t5zPwAl9Qz8+uEDg/t2jBImi7BstGbdymqSQPT04jo0v9RMYBCAfyAwXt4A3j7AePsAeHix2a0YmSb4ybOxhoV2JerVxwM2b6RSCVRFGRtQRlVXahyeKtl/Z+0L+BgLpKJpKKhWsRW2Hk1r/cX4IYkru6ZEnzRl5U/k1ffssb78GNEmTEHLDu9wx4uss2q/Fg8PwaB4g9E5ISj7yzcHjW+uiWttvQo2IQkUavxLvx65lFvSW++D1Y2M5M8AP26F5uaB99+ZBqWaIFSqRiIwQUsQgEPTgL8mt2tpmNI96tAjI5K+7t0zentUQIA6v5wZz0+ZNTMf2Ve1nBCFGaBJ8Sr/elPH/wGHQwPlzGGtfvw0fegTFEURBxcbrYHNSOL27cqWidPWFgl8J2wkpLFuuHRjWIcTE9BWKFUwIjk0e9ropM9G9Gz9S4sW/reM9WHs7/O2la9alF0/jRCFMaQk+DtqD7QSZFcugOz6ZdGs5NkltfDN873mPTOp82IJJGjWXdqMJBDF4+cKBw5L/32/wD4hAbxICkgIDbQKapQMm6E6IdyntE9qxB8Thrb9bkDXuL1SOMs88EPp8d+L6R6EKCRYVENdGtEe8HgRGuANa/89tFfn5KjjdpSs2QxlU5JA1FZuzHzhxWUn/2NIo0DDIfcEyBnRI0UF3SgWEgE+SAaoIcT4eWBgzuX744PPRbfwvzaoW/yW0BC/wjZxQVekXjWGYbx7rii9VlqtjDJqB5FaGHfvn297QOc3HbsTd72Jx4s3n+g11xbaortDaun8bE4SKAj6TyzelD1XlygYBpjH0lp/6+slv1dUUpNQWFx9X1Wt0r9OSfvh3ygAJjTAqzjQT1EaHel/w89DUclQwIQEet9Kui/sbGp86Dnah6EtsStYCpBuu8ISJn7g2pIbQNMUIQpboarTD+c5eSFTzG0e8IcGj5Wr0vtPezAtZbVEUpBuNQhIQhLY9zPvbvtl07HCyaE+CgYvKtjxaBo6J0ccXPPh2DQpjgP2WlWWKH4ovopVSAhR2BB1jd+D7K9TevknuVHQODmmS4uDC+cNezQu3LfAhqOTrgwgIBlJ4HjT/rVj6x8n8x7gh5Xjr0BAgG/p9vdHdrvvvuDrrroyGo0ihxc96qpTcbzcuuH6OteaKCB3TP3vCz1nPjT8/pWOF7r5SCApSWAC3Wn/3vnbjhN5ozUaBWoVDDQ01DEKD/j+7WHDeneKPeqqcBeWMgkTNpaeKa1ShhCNwoJV5EXkUjnXmqyn+li/2C3vzR4wKyLCr8iCkUgTKxCQlCRQLoZhZM/+3451G4/lPyioUM4AlNYq4YOZ3Z59elLnr6yYg0ObskSxoTSztFoZTIjCxKXgrjSvXwJZ3jVRuwMaJnF/4M3Fl+kDR4u5zZs4GnnNSgQkJwlOvlcX7vnu613XnuBfj3IW6om94zesemf43yiKarz6sHJi9myOtx5j15Sd2Hqbbk+uR5tAntMccq+C7PolfqIfbSP+9Xb6pHYL0mf2ed2ea0nG0kfAbiSBQ3+7IfOVV746+YnurQeeN/09ZJXLXh86bkgPdRSmKz7E4crAqmlsDrKCG7pZwAQNuFuLWWmt1s6f3utlcq3pHF+BXUkCp7xpV/aUZ5YcWiNIpssL6320X9zafz/T98WoKPPdp50B0mWHK9949njtB81eo9AE5VHlpSC7cRmoW4WimgO7ZprYmom94/fNfazD/C7JUSecYS2JDGoE7E4SOOjl3LLEcfO3/llSUesjSKjLs2K//GDKO/Oe7P2+K/rgn85v6NN13b3DbeQq48Fn7rYTNfYG6s5NkF3NUl9l4iMWhKcJ15/QPuKv15/u/gKXy8PdIHH1+TiEJDjQ3ll2YMnijZdeFnPjRndbfN6b2e3FZx7q9AVFUTo19JwberRTzNhYvuW73IZhbq9VcMRQVQFUUZ46vsIQMWh+CNCTtndi6J9vPNP9RUIOzr2XHUoSCM3B0zlpr/336MortytjdY8g+HckixBvRXX6o51emzQsYXVISEiZc0MqlO7nszVPvZlRvQxo2r0cr3h5Q2V3bwFVkANUWanB9ICcQRI9JR/tF7v16YkdP+7ZMfqAOWuJSY6Ki6vCIiP9b5rTjrxrHQIOJwkUH/0pPvzm8Psfrr84H4O1Ajw1eSI0c+Ouw0K8FTVjesX+MHVC+8+6Jrc4a93U7dc6v5qJfWt7+dcrcxtGu7RWwRFDfR3IinKBuo0Jf0oN2xo0EHNa4ZyxbT+bNrbTfxLjgjSqhmlrgMl/5i3au6Wipj7G31txr/BubcvXnuzxeJfUFodN64G8ZQ0CTkES3ASuXy+9741lh75ae7JoREqgogHkcmFGEZ6q2ibSL3fG2OQlQ4d0XpkYSmkOvtZAIX3bPddrR87aVrXuSj3j7zJkIaYxVFWqicHAkYKvNSDpv/dkl1cf6NfmB0tvK8a/tLF2xvjUhe2TWuyurqoNjwj3Pz85feuZL9MHD+7UrqXLOuNJv+NsM4JTkQQ3pTOXbndesPzYgq2Zt0bgJvP3kDUWKdbRLm5XK2FEavipx9Jarxzdr+06SzeibeA0rZfPj1a9teR07T+v1DOeTkcWPG2BwrKHxUVsikCorDCcaVxnTTzkMhjTveXm6aPb/bd/j4SdpqEi/taBk7kTf913+b0XHun63EuL9u17aFCrJYf/ujki/ane099aevD7tR+P62BN/6StcQSckiT4ZPH9xnMvL99z4wkfBQW6NyHa6dE0U1LPUJiFanz7iMMDOrbc2b9X/M6E+IDs6MDAO8ZhsP8bedVMzIojVa/870L17Cu0zNdhZKFLCiXFbEJh9hjBpQhsIj0gdxTEUP4hyWF/PjSk1fdj+rddExHhV2gLVL/ZkPlhZLB3ScekiIN//2DvkQ6tQnd1To3YO3VM+09SJq+qyV7/hFPvYVtg4Og+XAJgPIb8sjfrqaW/Zv2jvI6mYnxlKkYml2nLDPJR1BAGbtqY8ABl51jfPWk94jbf3zbsRGRcbJazHU1uVDFRq45Vvf72udoXcRptPKnGqFlb7w5+QmFNcWRMIoy+DBRqClzpAQPHCE4cjhiQlFMi/GDmiNaLJ49s803rmIhsW4u8aXfWs5dySntOGp786edrMxc/NKTNwvV7L7+UPrXvc0/839bDO76YHG3rMUl/QgRcgiQaNycj23cyd+iS1af/tTfrbn9Wu/Ck2KS6YoSBm5lSqbUMbQarMJ+CkT1jf+6UHHbyvqRWJzvFeF13hopOeGX65dGqlz45R390paYBLPax4BMBAofZxTWZxamKcrWWYAYhYBcaHNmcoSz5hvjAUyMTPx3R676fpLYJoFG738yfGj6e02+MX5BXYZekyMyNu7KeWrvz8ktzJnd+fVCPuN/JRy0tAi5FEnwo8svLw/buy33wl92XZ5y6XtYX793xLKx7M8Jvw8+FyaW+q6inITkxCgbFe25oExv8V1J8yIWE+JDsFi298x11VNlztXbMLxfqZu/MU44RhKLrEgBHAmhExLojmDy4pgpYMjCUWdyIlsDXFricoejH0rlN6Km0HrEbB/eI39g2IeyCtNtS2PuNG3dSX1xycEu3lPCdvl7yioNnbz324JBW/5kxsfMCe8rRXMdyWZLgL9jNmxWRh8/mDt9+PG/c1hNFj+BdPGoZYn4XvHbqsHUAimGA4nJm4t9RjcYnpWWQKinc81TLMJ8if2/Piqhw39zoSL+8uKiga/5+irsBvr6lmFHLIzCoREYBFR8E92wVpIaaxZkiZc8t2bWP/u/k3WextAA01AFVWwNQWwNUXS1AXY261AD7/+v0UwEaKzXAB0Mnb2ifxKBbfTtEbR7aI/bX1ISIM7ayMVjzoV3KKWut8GBob395laMI3Br5XbWtW5CEUFtgZMfOFfQ8cCp/9K4T+RN2ZN3tFOApZ0kDjyboHsyqzybMXKNmqypoinXc4OfbxH/XEpGHQsl4ectCqYacAF+F9jrW20NR6+stZ6sGeXh71VEUuoSwNgegKIZqqKlji45U1yr9GKBUdQ1KXxStskYZAQCeJfVUBB4XGKWyDDUKCgDlCNTMlwG53IRZCLemdu6akgNs7tB6GlKig2FK/5hvOyWFZfTsnLA7OtSnyBVd4l31Q3Rmuc3eZM48GTHZMJ8FksafV4u77TmWP/HM1ZLBFfUqBadt4BFF7Iq1iXmyH7nm4fBjUBvRaCYCzqJUbCZftk0FTQn8PgIUTBUwQDEy9hzBD5NnKxdRFPvf0D8d2yNB4D/4N/xH6HGmIzB3tML/rJtZPMDXEzolBGYO7xn/c2pCyKm28aHniBejq+1s+8nr9iQhBuW1wtKEwsKq1ofP5Q29kl/W6UZRVbvc0rrEgtIa9nXUEJA88DGTQKRYOTz7IFHg/yJZcAThyREB2iIwwzhnZ+Hm0CbSrz480KugdUzAX+0TI460Tw472iLUu6hVdHiWFIKSPt0TgWZJEmJLWVRREVFVpgrKv1nW6np+acrNO1UJN4oqkq/frEzJLalrgwSCKf0DFGryQCLBhyMTjlC0Kgam/jbnWKN5n2uPv/7cwx1z8N/xeMBqJZryAglhPg3xkX5/Rof7XI8K9ctpFRt4vs19oX/FhAbmhYf73qQo9fGGPAQBSxEgJGECcgzDsOp/QUVFcPHN2rjy8trIkntV0VU1yrDaOjr49t3qpDv3apKLK+nYhto6L7Qx3CmvY7EtqdG4L6PhUffRlDgM9ZGDv48CvD3U9VGDgv0gzFdWERLoVebrJb8VFeF/zN/P62pIgM9VDy+Pe9GBPrkJCUF5+C6xG5iwgOQVqxD4f62wuXLfP3D2AAAAAElFTkSuQmCC" parent="1" vertex="1">
          <mxGeometry x="305" y="771" width="45" height="32.26" as="geometry" />
        </mxCell>
        <mxCell id="TApjB5D54E2WqBaY5rXI-4" value="&lt;b&gt;&lt;font color=&quot;#148fed&quot;&gt;Docker Daemon&lt;/font&gt;&lt;/b&gt;" style="shape=process;whiteSpace=wrap;html=1;backgroundOutline=1;fillColor=#ffe6cc;strokeColor=#d79b00;" parent="1" vertex="1">
          <mxGeometry x="410" y="780" width="180" height="50" as="geometry" />
        </mxCell>
        <mxCell id="TApjB5D54E2WqBaY5rXI-5" value="Container" style="swimlane;fillColor=#dae8fc;strokeColor=#6c8ebf;" parent="1" vertex="1">
          <mxGeometry x="330" y="845" width="160" height="60" as="geometry" />
        </mxCell>
        <mxCell id="TApjB5D54E2WqBaY5rXI-6" value="Zookeeper" style="text;html=1;align=center;verticalAlign=middle;resizable=0;points=[];autosize=1;strokeColor=none;fillColor=none;" parent="1" vertex="1">
          <mxGeometry x="370" y="873" width="80" height="30" as="geometry" />
        </mxCell>
        <mxCell id="TApjB5D54E2WqBaY5rXI-7" value="Container" style="swimlane;fillColor=#dae8fc;strokeColor=#6c8ebf;" parent="1" vertex="1">
          <mxGeometry x="520" y="845" width="160" height="60" as="geometry" />
        </mxCell>
        <mxCell id="TApjB5D54E2WqBaY5rXI-8" value="Kafka Server" style="text;html=1;align=center;verticalAlign=middle;resizable=0;points=[];autosize=1;strokeColor=none;fillColor=none;" parent="1" vertex="1">
          <mxGeometry x="555" y="873" width="90" height="30" as="geometry" />
        </mxCell>
        <mxCell id="TApjB5D54E2WqBaY5rXI-9" value="Container" style="swimlane;fillColor=#dae8fc;strokeColor=#6c8ebf;" parent="1" vertex="1">
          <mxGeometry x="330" y="930" width="160" height="60" as="geometry" />
        </mxCell>
        <mxCell id="TApjB5D54E2WqBaY5rXI-10" value="API - Web Server" style="text;html=1;align=center;verticalAlign=middle;resizable=0;points=[];autosize=1;strokeColor=none;fillColor=none;" parent="1" vertex="1">
          <mxGeometry x="350" y="958" width="120" height="30" as="geometry" />
        </mxCell>
        <mxCell id="TApjB5D54E2WqBaY5rXI-11" value="Container" style="swimlane;fillColor=#dae8fc;strokeColor=#6c8ebf;" parent="1" vertex="1">
          <mxGeometry x="520" y="928" width="160" height="60" as="geometry" />
        </mxCell>
        <mxCell id="TApjB5D54E2WqBaY5rXI-12" value="MongoDB" style="text;html=1;align=center;verticalAlign=middle;resizable=0;points=[];autosize=1;strokeColor=none;fillColor=none;" parent="1" vertex="1">
          <mxGeometry x="560" y="956" width="80" height="30" as="geometry" />
        </mxCell>
        <mxCell id="TApjB5D54E2WqBaY5rXI-13" value="Container" style="swimlane;fillColor=#dae8fc;strokeColor=#6c8ebf;" parent="1" vertex="1">
          <mxGeometry x="420" y="1010" width="160" height="60" as="geometry" />
        </mxCell>
        <mxCell id="TApjB5D54E2WqBaY5rXI-14" value="Kafka Producer" style="text;html=1;align=center;verticalAlign=middle;resizable=0;points=[];autosize=1;strokeColor=none;fillColor=none;" parent="1" vertex="1">
          <mxGeometry x="445" y="1038" width="110" height="30" as="geometry" />
        </mxCell>
        <mxCell id="7W1ypCniK4LnjlibQrKl-1" value="" style="image;aspect=fixed;perimeter=ellipsePerimeter;html=1;align=center;shadow=0;dashed=0;spacingTop=3;image=img/lib/active_directory/generic_server.svg;" vertex="1" parent="1">
          <mxGeometry x="130" y="1250" width="128" height="228.57" as="geometry" />
        </mxCell>
      </root>
    </mxGraphModel>
  </diagram>
</mxfile>
